<svg viewBox="0 0 28.592 26.168" xmlns="http://www.w3.org/2000/svg" xmlns:xlink="http://www.w3.org/1999/xlink"><clipPath id="a" transform="translate(-.5 -.5)"><path d="m.5.5h28.592v26.168h-28.592z"/></clipPath><g clip-path="url(#a)" fill="#fff"><path d="m23.138 21.677a1.426 1.426 0 1 0 1.426 1.423 1.427 1.427 0 0 0 -1.426-1.426m0 4.991a3.565 3.565 0 1 1 3.562-3.565 3.569 3.569 0 0 1 -3.565 3.565" transform="translate(-.5 -.5)"/><path d="m9.615 15.865h14.968l2.073-8.378h-19.043zm15.805 2.135h-16.649a1.069 1.069 0 0 1 -1.04-.821l-3.476-14.54h-2.686a1.07 1.07 0 0 1 0-2.139h3.531a1.069 1.069 0 0 1 1.04.821l.96 4.027h20.923a1.07 1.07 0 0 1 1.038 1.327l-2.6 10.517a1.069 1.069 0 0 1 -1.041.808" transform="translate(-.5 -.5)"/><path d="m10.2 21.677a1.426 1.426 0 1 0 1.423 1.423 1.427 1.427 0 0 0 -1.423-1.423m0 4.991a3.565 3.565 0 1 1 3.562-3.568 3.569 3.569 0 0 1 -3.562 3.568" transform="translate(-.5 -.5)"/></g></svg>